<mxfile host="app.diagrams.net" agent="Mozilla/5.0 (Windows NT 10.0; Win64; x64) AppleWebKit/537.36 (KHTML, like Gecko) Chrome/134.0.0.0 Safari/537.36" version="26.1.1">
  <diagram name="第 1 页" id="SP2U-7Wt1fsIOUwvj4gY">
    <mxGraphModel dx="1050" dy="1794" grid="1" gridSize="10" guides="1" tooltips="1" connect="1" arrows="1" fold="1" page="1" pageScale="1" pageWidth="827" pageHeight="1169" math="0" shadow="0">
      <root>
        <mxCell id="0" />
        <mxCell id="1" parent="0" />
        <mxCell id="IzOtXu-ou1Wxr031-CrI-1" value="体素化" style="rounded=1;whiteSpace=wrap;html=1;" parent="1" vertex="1">
          <mxGeometry x="300" y="20" width="120" height="60" as="geometry" />
        </mxCell>
        <mxCell id="IzOtXu-ou1Wxr031-CrI-2" value="&lt;div style=&quot;background-color: rgb(255, 255, 255); font-family: Consolas, &amp;quot;Courier New&amp;quot;, monospace; font-size: 20px; line-height: 27px; white-space: pre;&quot;&gt;&lt;span style=&quot;color: #0000ff;font-weight: bold;&quot;&gt;VoxelResBackBone8x&lt;br&gt;3d卷积&lt;/span&gt;&lt;/div&gt;" style="rounded=1;whiteSpace=wrap;html=1;" parent="1" vertex="1">
          <mxGeometry x="226" y="320" width="256" height="60" as="geometry" />
        </mxCell>
        <mxCell id="IzOtXu-ou1Wxr031-CrI-83" style="edgeStyle=orthogonalEdgeStyle;rounded=0;orthogonalLoop=1;jettySize=auto;html=1;exitX=1;exitY=0.5;exitDx=0;exitDy=0;entryX=0;entryY=0.5;entryDx=0;entryDy=0;" parent="1" source="IzOtXu-ou1Wxr031-CrI-3" target="IzOtXu-ou1Wxr031-CrI-71" edge="1">
          <mxGeometry relative="1" as="geometry" />
        </mxCell>
        <mxCell id="IzOtXu-ou1Wxr031-CrI-84" style="edgeStyle=orthogonalEdgeStyle;rounded=0;orthogonalLoop=1;jettySize=auto;html=1;exitX=1;exitY=0.5;exitDx=0;exitDy=0;entryX=1;entryY=0.5;entryDx=0;entryDy=0;" parent="1" source="IzOtXu-ou1Wxr031-CrI-3" target="IzOtXu-ou1Wxr031-CrI-72" edge="1">
          <mxGeometry relative="1" as="geometry" />
        </mxCell>
        <mxCell id="IzOtXu-ou1Wxr031-CrI-3" value="&lt;div style=&quot;background-color: rgb(255, 255, 255); font-family: Consolas, &amp;quot;Courier New&amp;quot;, monospace; font-size: 20px; line-height: 27px; white-space: pre;&quot;&gt;&lt;div style=&quot;line-height: 27px;&quot;&gt;&lt;span style=&quot;color: #0000ff;font-weight: bold;&quot;&gt;BaseBEVBackbone&lt;br/&gt;2d卷积&lt;/span&gt;&lt;/div&gt;&lt;/div&gt;" style="rounded=1;whiteSpace=wrap;html=1;verticalAlign=top;" parent="1" vertex="1">
          <mxGeometry x="244" y="670" width="256" height="340" as="geometry" />
        </mxCell>
        <mxCell id="IzOtXu-ou1Wxr031-CrI-4" value="&lt;div style=&quot;background-color: rgb(255, 255, 255); font-family: Consolas, &amp;quot;Courier New&amp;quot;, monospace; font-size: 20px; line-height: 27px; white-space: pre;&quot;&gt;&lt;div style=&quot;line-height: 27px;&quot;&gt;&lt;div style=&quot;line-height: 27px;&quot;&gt;&lt;span style=&quot;color: #0000ff;font-weight: bold;&quot;&gt;CenterHead&lt;br/&gt;带loss和卷积的检测头&lt;/span&gt;&lt;/div&gt;&lt;/div&gt;&lt;/div&gt;" style="rounded=1;whiteSpace=wrap;html=1;verticalAlign=top;" parent="1" vertex="1">
          <mxGeometry x="237" y="1120" width="256" height="410" as="geometry" />
        </mxCell>
        <mxCell id="IzOtXu-ou1Wxr031-CrI-5" value="" style="shape=cube;whiteSpace=wrap;html=1;boundedLbl=1;backgroundOutline=1;darkOpacity=0.05;darkOpacity2=0.1;size=30;" parent="1" vertex="1">
          <mxGeometry x="310" y="120" width="110" height="170" as="geometry" />
        </mxCell>
        <mxCell id="IzOtXu-ou1Wxr031-CrI-6" value="80" style="text;html=1;align=center;verticalAlign=middle;resizable=0;points=[];autosize=1;strokeColor=none;fillColor=none;" parent="1" vertex="1">
          <mxGeometry x="330" y="100" width="40" height="30" as="geometry" />
        </mxCell>
        <mxCell id="IzOtXu-ou1Wxr031-CrI-7" value="80" style="text;html=1;align=center;verticalAlign=middle;resizable=0;points=[];autosize=1;strokeColor=none;fillColor=none;" parent="1" vertex="1">
          <mxGeometry x="390" y="115" width="40" height="30" as="geometry" />
        </mxCell>
        <mxCell id="IzOtXu-ou1Wxr031-CrI-8" value="200" style="text;html=1;align=center;verticalAlign=middle;resizable=0;points=[];autosize=1;strokeColor=none;fillColor=none;" parent="1" vertex="1">
          <mxGeometry x="410" y="200" width="40" height="30" as="geometry" />
        </mxCell>
        <mxCell id="IzOtXu-ou1Wxr031-CrI-9" value="" style="shape=cube;whiteSpace=wrap;html=1;boundedLbl=1;backgroundOutline=1;darkOpacity=0.05;darkOpacity2=0.1;size=10;" parent="1" vertex="1">
          <mxGeometry x="174.5" y="420" width="395" height="30" as="geometry" />
        </mxCell>
        <mxCell id="IzOtXu-ou1Wxr031-CrI-12" value="1536" style="text;html=1;align=center;verticalAlign=middle;resizable=0;points=[];autosize=1;strokeColor=none;fillColor=none;" parent="1" vertex="1">
          <mxGeometry x="329" y="450" width="50" height="30" as="geometry" />
        </mxCell>
        <mxCell id="IzOtXu-ou1Wxr031-CrI-13" value="" style="shape=cube;whiteSpace=wrap;html=1;boundedLbl=1;backgroundOutline=1;darkOpacity=0.05;darkOpacity2=0.1;size=10;" parent="1" vertex="1">
          <mxGeometry x="550" y="500" width="25" height="30" as="geometry" />
        </mxCell>
        <mxCell id="IzOtXu-ou1Wxr031-CrI-56" style="edgeStyle=orthogonalEdgeStyle;rounded=0;orthogonalLoop=1;jettySize=auto;html=1;" parent="1" source="IzOtXu-ou1Wxr031-CrI-14" edge="1">
          <mxGeometry relative="1" as="geometry">
            <mxPoint x="640" y="660" as="targetPoint" />
          </mxGeometry>
        </mxCell>
        <mxCell id="IzOtXu-ou1Wxr031-CrI-14" value="10" style="text;html=1;align=center;verticalAlign=middle;resizable=0;points=[];autosize=1;strokeColor=none;fillColor=none;" parent="1" vertex="1">
          <mxGeometry x="563" y="510" width="40" height="30" as="geometry" />
        </mxCell>
        <mxCell id="IzOtXu-ou1Wxr031-CrI-15" value="10" style="text;html=1;align=center;verticalAlign=middle;resizable=0;points=[];autosize=1;strokeColor=none;fillColor=none;" parent="1" vertex="1">
          <mxGeometry x="558" y="480" width="40" height="30" as="geometry" />
        </mxCell>
        <mxCell id="IzOtXu-ou1Wxr031-CrI-16" value="12" style="text;html=1;align=center;verticalAlign=middle;resizable=0;points=[];autosize=1;strokeColor=none;fillColor=none;" parent="1" vertex="1">
          <mxGeometry x="532.5" y="530" width="40" height="30" as="geometry" />
        </mxCell>
        <mxCell id="IzOtXu-ou1Wxr031-CrI-24" value="" style="shape=cube;whiteSpace=wrap;html=1;boundedLbl=1;backgroundOutline=1;darkOpacity=0.05;darkOpacity2=0.1;size=10;" parent="1" vertex="1">
          <mxGeometry x="510" y="500" width="23" height="30" as="geometry" />
        </mxCell>
        <mxCell id="IzOtXu-ou1Wxr031-CrI-25" value="" style="shape=cube;whiteSpace=wrap;html=1;boundedLbl=1;backgroundOutline=1;darkOpacity=0.05;darkOpacity2=0.1;size=10;" parent="1" vertex="1">
          <mxGeometry x="470" y="500" width="20.5" height="30" as="geometry" />
        </mxCell>
        <mxCell id="IzOtXu-ou1Wxr031-CrI-26" value="" style="shape=cube;whiteSpace=wrap;html=1;boundedLbl=1;backgroundOutline=1;darkOpacity=0.05;darkOpacity2=0.1;size=10;" parent="1" vertex="1">
          <mxGeometry x="430" y="500" width="18" height="30" as="geometry" />
        </mxCell>
        <mxCell id="IzOtXu-ou1Wxr031-CrI-27" value="" style="shape=cube;whiteSpace=wrap;html=1;boundedLbl=1;backgroundOutline=1;darkOpacity=0.05;darkOpacity2=0.1;size=10;" parent="1" vertex="1">
          <mxGeometry x="380" y="500" width="23" height="30" as="geometry" />
        </mxCell>
        <mxCell id="IzOtXu-ou1Wxr031-CrI-29" value="" style="shape=cube;whiteSpace=wrap;html=1;boundedLbl=1;backgroundOutline=1;darkOpacity=0.05;darkOpacity2=0.1;size=10;" parent="1" vertex="1">
          <mxGeometry x="200" y="500" width="26" height="30" as="geometry" />
        </mxCell>
        <mxCell id="IzOtXu-ou1Wxr031-CrI-30" value="12" style="text;html=1;align=center;verticalAlign=middle;resizable=0;points=[];autosize=1;strokeColor=none;fillColor=none;" parent="1" vertex="1">
          <mxGeometry x="493" y="530" width="40" height="30" as="geometry" />
        </mxCell>
        <mxCell id="IzOtXu-ou1Wxr031-CrI-31" value="" style="endArrow=none;dashed=1;html=1;rounded=0;entryX=0.757;entryY=0.907;entryDx=0;entryDy=0;entryPerimeter=0;" parent="1" target="IzOtXu-ou1Wxr031-CrI-16" edge="1">
          <mxGeometry width="50" height="50" relative="1" as="geometry">
            <mxPoint x="200" y="557" as="sourcePoint" />
            <mxPoint x="440" y="500" as="targetPoint" />
          </mxGeometry>
        </mxCell>
        <mxCell id="IzOtXu-ou1Wxr031-CrI-32" value="12" style="edgeLabel;html=1;align=center;verticalAlign=middle;resizable=0;points=[];" parent="IzOtXu-ou1Wxr031-CrI-31" vertex="1" connectable="0">
          <mxGeometry x="0.0078" y="-1" relative="1" as="geometry">
            <mxPoint as="offset" />
          </mxGeometry>
        </mxCell>
        <mxCell id="IzOtXu-ou1Wxr031-CrI-33" value="" style="shape=cube;whiteSpace=wrap;html=1;boundedLbl=1;backgroundOutline=1;darkOpacity=0.05;darkOpacity2=0.1;size=10;" parent="1" vertex="1">
          <mxGeometry x="181" y="610" width="395" height="30" as="geometry" />
        </mxCell>
        <mxCell id="IzOtXu-ou1Wxr031-CrI-34" value="1536" style="text;html=1;align=center;verticalAlign=middle;resizable=0;points=[];autosize=1;strokeColor=none;fillColor=none;" parent="1" vertex="1">
          <mxGeometry x="347" y="640" width="50" height="30" as="geometry" />
        </mxCell>
        <mxCell id="IzOtXu-ou1Wxr031-CrI-35" value="10" style="text;html=1;align=center;verticalAlign=middle;resizable=0;points=[];autosize=1;strokeColor=none;fillColor=none;" parent="1" vertex="1">
          <mxGeometry x="453" y="430" width="40" height="30" as="geometry" />
        </mxCell>
        <mxCell id="IzOtXu-ou1Wxr031-CrI-36" value="10" style="text;html=1;align=center;verticalAlign=middle;resizable=0;points=[];autosize=1;strokeColor=none;fillColor=none;" parent="1" vertex="1">
          <mxGeometry x="448" y="400" width="40" height="30" as="geometry" />
        </mxCell>
        <mxCell id="IzOtXu-ou1Wxr031-CrI-37" value="10" style="text;html=1;align=center;verticalAlign=middle;resizable=0;points=[];autosize=1;strokeColor=none;fillColor=none;" parent="1" vertex="1">
          <mxGeometry x="498" y="625" width="40" height="30" as="geometry" />
        </mxCell>
        <mxCell id="IzOtXu-ou1Wxr031-CrI-38" value="10" style="text;html=1;align=center;verticalAlign=middle;resizable=0;points=[];autosize=1;strokeColor=none;fillColor=none;" parent="1" vertex="1">
          <mxGeometry x="493" y="595" width="40" height="30" as="geometry" />
        </mxCell>
        <mxCell id="IzOtXu-ou1Wxr031-CrI-41" value="" style="shape=cube;whiteSpace=wrap;html=1;boundedLbl=1;backgroundOutline=1;darkOpacity=0.05;darkOpacity2=0.1;size=10;" parent="1" vertex="1">
          <mxGeometry x="340" y="750" width="55" height="30" as="geometry" />
        </mxCell>
        <mxCell id="IzOtXu-ou1Wxr031-CrI-42" value="10" style="text;html=1;align=center;verticalAlign=middle;resizable=0;points=[];autosize=1;strokeColor=none;fillColor=none;" parent="1" vertex="1">
          <mxGeometry x="383" y="760" width="40" height="30" as="geometry" />
        </mxCell>
        <mxCell id="IzOtXu-ou1Wxr031-CrI-43" value="10" style="text;html=1;align=center;verticalAlign=middle;resizable=0;points=[];autosize=1;strokeColor=none;fillColor=none;" parent="1" vertex="1">
          <mxGeometry x="378" y="730" width="40" height="30" as="geometry" />
        </mxCell>
        <mxCell id="IzOtXu-ou1Wxr031-CrI-44" value="128" style="text;html=1;align=center;verticalAlign=middle;resizable=0;points=[];autosize=1;strokeColor=none;fillColor=none;" parent="1" vertex="1">
          <mxGeometry x="352.5" y="780" width="40" height="30" as="geometry" />
        </mxCell>
        <mxCell id="IzOtXu-ou1Wxr031-CrI-45" value="卷积核&amp;nbsp; &amp;nbsp; &amp;nbsp;x&amp;nbsp; &amp;nbsp;128" style="shape=cube;whiteSpace=wrap;html=1;boundedLbl=1;backgroundOutline=1;darkOpacity=0.05;darkOpacity2=0.1;size=5;rotation=90;fillColor=#f8cecc;strokeColor=#b85450;" parent="1" vertex="1">
          <mxGeometry x="-22.5" y="832.5" width="285" height="20" as="geometry" />
        </mxCell>
        <mxCell id="IzOtXu-ou1Wxr031-CrI-46" value="" style="shape=cube;whiteSpace=wrap;html=1;boundedLbl=1;backgroundOutline=1;darkOpacity=0.05;darkOpacity2=0.1;size=10;fillColor=#dae8fc;strokeColor=#6c8ebf;" parent="1" vertex="1">
          <mxGeometry x="359.5" y="1040" width="87" height="30" as="geometry" />
        </mxCell>
        <mxCell id="IzOtXu-ou1Wxr031-CrI-47" value="10" style="text;html=1;align=center;verticalAlign=middle;resizable=0;points=[];autosize=1;strokeColor=none;fillColor=none;" parent="1" vertex="1">
          <mxGeometry x="413" y="1050" width="40" height="30" as="geometry" />
        </mxCell>
        <mxCell id="IzOtXu-ou1Wxr031-CrI-48" value="10" style="text;html=1;align=center;verticalAlign=middle;resizable=0;points=[];autosize=1;strokeColor=none;fillColor=none;" parent="1" vertex="1">
          <mxGeometry x="408" y="1020" width="40" height="30" as="geometry" />
        </mxCell>
        <mxCell id="IzOtXu-ou1Wxr031-CrI-49" value="256" style="text;html=1;align=center;verticalAlign=middle;resizable=0;points=[];autosize=1;strokeColor=none;fillColor=none;" parent="1" vertex="1">
          <mxGeometry x="382.5" y="1070" width="40" height="30" as="geometry" />
        </mxCell>
        <mxCell id="IzOtXu-ou1Wxr031-CrI-50" value="" style="shape=cube;whiteSpace=wrap;html=1;boundedLbl=1;backgroundOutline=1;darkOpacity=0.05;darkOpacity2=0.1;size=10;fillColor=#e1d5e7;strokeColor=#9673a6;" parent="1" vertex="1">
          <mxGeometry x="283" y="1040" width="87" height="30" as="geometry" />
        </mxCell>
        <mxCell id="IzOtXu-ou1Wxr031-CrI-51" value="256" style="text;html=1;align=center;verticalAlign=middle;resizable=0;points=[];autosize=1;strokeColor=none;fillColor=none;" parent="1" vertex="1">
          <mxGeometry x="312.5" y="1070" width="40" height="30" as="geometry" />
        </mxCell>
        <mxCell id="IzOtXu-ou1Wxr031-CrI-52" value="" style="shape=cube;whiteSpace=wrap;html=1;boundedLbl=1;backgroundOutline=1;darkOpacity=0.05;darkOpacity2=0.1;size=10;" parent="1" vertex="1">
          <mxGeometry x="314.5" y="1220" width="45" height="30" as="geometry" />
        </mxCell>
        <mxCell id="IzOtXu-ou1Wxr031-CrI-57" value="卷积核&amp;nbsp;" style="shape=cube;whiteSpace=wrap;html=1;boundedLbl=1;backgroundOutline=1;darkOpacity=0.05;darkOpacity2=0.1;size=5;rotation=0;fillColor=#f8cecc;strokeColor=#b85450;" parent="1" vertex="1">
          <mxGeometry x="657.5" y="704.37" width="50" height="21.25" as="geometry" />
        </mxCell>
        <mxCell id="IzOtXu-ou1Wxr031-CrI-59" value="1*1*128" style="text;html=1;align=center;verticalAlign=middle;resizable=0;points=[];autosize=1;strokeColor=none;fillColor=none;" parent="1" vertex="1">
          <mxGeometry x="642.5" y="733.62" width="70" height="30" as="geometry" />
        </mxCell>
        <mxCell id="IzOtXu-ou1Wxr031-CrI-60" value="x12个" style="text;html=1;align=center;verticalAlign=middle;resizable=0;points=[];autosize=1;strokeColor=none;fillColor=none;" parent="1" vertex="1">
          <mxGeometry x="707.5" y="700" width="50" height="30" as="geometry" />
        </mxCell>
        <mxCell id="IzOtXu-ou1Wxr031-CrI-62" value="shape改变，将其拆分128份，&lt;div&gt;每份取一片新组成再合并&lt;/div&gt;" style="text;html=1;align=center;verticalAlign=middle;resizable=0;points=[];autosize=1;strokeColor=none;fillColor=none;" parent="1" vertex="1">
          <mxGeometry x="615" y="480" width="180" height="40" as="geometry" />
        </mxCell>
        <mxCell id="IzOtXu-ou1Wxr031-CrI-63" value="&lt;span style=&quot;color: rgb(199, 37, 78); font-family: &amp;quot;Source Code Pro&amp;quot;, &amp;quot;DejaVu Sans Mono&amp;quot;, &amp;quot;Ubuntu Mono&amp;quot;, &amp;quot;Anonymous Pro&amp;quot;, &amp;quot;Droid Sans Mono&amp;quot;, Menlo, Monaco, Consolas, Inconsolata, Courier, monospace, &amp;quot;PingFang SC&amp;quot;, &amp;quot;Microsoft YaHei&amp;quot;, sans-serif; font-size: 14px; font-style: normal; font-variant-ligatures: no-common-ligatures; font-variant-caps: normal; font-weight: 400; letter-spacing: normal; orphans: 2; text-align: start; text-indent: 0px; text-transform: none; widows: 2; word-spacing: 0px; -webkit-text-stroke-width: 0px; white-space: normal; background-color: rgb(249, 242, 244); text-decoration-thickness: initial; text-decoration-style: initial; text-decoration-color: initial; display: inline !important; float: none;&quot;&gt;torch.transpose(input, dim0, dim1, out=None)&lt;/span&gt;&lt;div&gt;&lt;span style=&quot;font-family: &amp;quot;Source Code Pro&amp;quot;, &amp;quot;DejaVu Sans Mono&amp;quot;, &amp;quot;Ubuntu Mono&amp;quot;, &amp;quot;Anonymous Pro&amp;quot;, &amp;quot;Droid Sans Mono&amp;quot;, Menlo, Monaco, Consolas, Inconsolata, Courier, monospace, &amp;quot;PingFang SC&amp;quot;, &amp;quot;Microsoft YaHei&amp;quot;, sans-serif; font-size: 14px; font-style: normal; font-variant-ligatures: no-common-ligatures; font-variant-caps: normal; font-weight: 400; letter-spacing: normal; orphans: 2; text-align: start; text-indent: 0px; text-transform: none; widows: 2; word-spacing: 0px; -webkit-text-stroke-width: 0px; white-space: normal; background-color: rgb(249, 242, 244); text-decoration-thickness: initial; text-decoration-style: initial; text-decoration-color: initial; float: none; display: inline !important;&quot;&gt;&lt;font color=&quot;#33001a&quot;&gt;torch.transpose(input, 1, 2, out=None)&lt;/font&gt;&lt;/span&gt;&lt;/div&gt;" style="text;whiteSpace=wrap;html=1;" parent="1" vertex="1">
          <mxGeometry x="660" y="555" width="370" height="40" as="geometry" />
        </mxCell>
        <mxCell id="IzOtXu-ou1Wxr031-CrI-64" value="&lt;span style=&quot;color: rgb(199, 37, 78); font-family: &amp;quot;Source Code Pro&amp;quot;, &amp;quot;DejaVu Sans Mono&amp;quot;, &amp;quot;Ubuntu Mono&amp;quot;, &amp;quot;Anonymous Pro&amp;quot;, &amp;quot;Droid Sans Mono&amp;quot;, Menlo, Monaco, Consolas, Inconsolata, Courier, monospace, &amp;quot;PingFang SC&amp;quot;, &amp;quot;Microsoft YaHei&amp;quot;, sans-serif; font-size: 14px; font-style: normal; font-variant-ligatures: no-common-ligatures; font-variant-caps: normal; font-weight: 400; letter-spacing: normal; orphans: 2; text-align: start; text-indent: 0px; text-transform: none; widows: 2; word-spacing: 0px; -webkit-text-stroke-width: 0px; white-space: normal; background-color: rgb(249, 242, 244); text-decoration-thickness: initial; text-decoration-style: initial; text-decoration-color: initial; display: inline !important; float: none;&quot;&gt;torch.contiguous()&lt;/span&gt;" style="text;whiteSpace=wrap;html=1;" parent="1" vertex="1">
          <mxGeometry x="660" y="630" width="170" height="40" as="geometry" />
        </mxCell>
        <mxCell id="IzOtXu-ou1Wxr031-CrI-65" value="128*12*10*10" style="text;html=1;align=center;verticalAlign=middle;resizable=0;points=[];autosize=1;strokeColor=none;fillColor=none;" parent="1" vertex="1">
          <mxGeometry x="650" y="530" width="100" height="30" as="geometry" />
        </mxCell>
        <mxCell id="IzOtXu-ou1Wxr031-CrI-66" value="12*128*10*10" style="text;html=1;align=center;verticalAlign=middle;resizable=0;points=[];autosize=1;strokeColor=none;fillColor=none;" parent="1" vertex="1">
          <mxGeometry x="650" y="610" width="100" height="30" as="geometry" />
        </mxCell>
        <mxCell id="IzOtXu-ou1Wxr031-CrI-70" value="" style="edgeStyle=orthogonalEdgeStyle;rounded=0;orthogonalLoop=1;jettySize=auto;html=1;" parent="1" source="IzOtXu-ou1Wxr031-CrI-67" target="IzOtXu-ou1Wxr031-CrI-69" edge="1">
          <mxGeometry relative="1" as="geometry" />
        </mxCell>
        <mxCell id="IzOtXu-ou1Wxr031-CrI-67" value="分组卷积" style="rounded=0;whiteSpace=wrap;html=1;" parent="1" vertex="1">
          <mxGeometry x="580" y="660" width="120" height="30" as="geometry" />
        </mxCell>
        <mxCell id="IzOtXu-ou1Wxr031-CrI-68" value="12*10*10" style="text;html=1;align=center;verticalAlign=middle;resizable=0;points=[];autosize=1;strokeColor=none;fillColor=none;" parent="1" vertex="1">
          <mxGeometry x="569.5" y="760" width="70" height="30" as="geometry" />
        </mxCell>
        <mxCell id="IzOtXu-ou1Wxr031-CrI-76" style="edgeStyle=orthogonalEdgeStyle;rounded=0;orthogonalLoop=1;jettySize=auto;html=1;exitX=0.25;exitY=1;exitDx=0;exitDy=0;" parent="1" source="IzOtXu-ou1Wxr031-CrI-69" edge="1">
          <mxGeometry relative="1" as="geometry">
            <mxPoint x="610" y="1000" as="targetPoint" />
          </mxGeometry>
        </mxCell>
        <mxCell id="IzOtXu-ou1Wxr031-CrI-69" value="" style="rounded=0;whiteSpace=wrap;html=1;" parent="1" vertex="1">
          <mxGeometry x="580" y="790" width="120" height="30" as="geometry" />
        </mxCell>
        <mxCell id="IzOtXu-ou1Wxr031-CrI-71" value="z" style="rounded=0;whiteSpace=wrap;html=1;" parent="1" vertex="1">
          <mxGeometry x="582" y="1000" width="45" height="60" as="geometry" />
        </mxCell>
        <mxCell id="IzOtXu-ou1Wxr031-CrI-72" value="dz" style="rounded=0;whiteSpace=wrap;html=1;" parent="1" vertex="1">
          <mxGeometry x="650" y="1000" width="45" height="60" as="geometry" />
        </mxCell>
        <mxCell id="IzOtXu-ou1Wxr031-CrI-73" value="卷积核&amp;nbsp;" style="shape=cube;whiteSpace=wrap;html=1;boundedLbl=1;backgroundOutline=1;darkOpacity=0.05;darkOpacity2=0.1;size=5;rotation=0;fillColor=#f8cecc;strokeColor=#b85450;" parent="1" vertex="1">
          <mxGeometry x="568" y="870" width="50" height="21.25" as="geometry" />
        </mxCell>
        <mxCell id="IzOtXu-ou1Wxr031-CrI-74" value="1*1*12" style="text;html=1;align=center;verticalAlign=middle;resizable=0;points=[];autosize=1;strokeColor=none;fillColor=none;" parent="1" vertex="1">
          <mxGeometry x="563" y="891.25" width="60" height="30" as="geometry" />
        </mxCell>
        <mxCell id="IzOtXu-ou1Wxr031-CrI-77" style="edgeStyle=orthogonalEdgeStyle;rounded=0;orthogonalLoop=1;jettySize=auto;html=1;exitX=0.25;exitY=1;exitDx=0;exitDy=0;" parent="1" edge="1">
          <mxGeometry relative="1" as="geometry">
            <mxPoint x="670" y="1000" as="targetPoint" />
            <mxPoint x="670" y="820" as="sourcePoint" />
          </mxGeometry>
        </mxCell>
        <mxCell id="IzOtXu-ou1Wxr031-CrI-78" value="卷积核&amp;nbsp;" style="shape=cube;whiteSpace=wrap;html=1;boundedLbl=1;backgroundOutline=1;darkOpacity=0.05;darkOpacity2=0.1;size=5;rotation=0;fillColor=#f8cecc;strokeColor=#b85450;" parent="1" vertex="1">
          <mxGeometry x="628" y="870" width="50" height="21.25" as="geometry" />
        </mxCell>
        <mxCell id="IzOtXu-ou1Wxr031-CrI-79" value="1*1*12" style="text;html=1;align=center;verticalAlign=middle;resizable=0;points=[];autosize=1;strokeColor=none;fillColor=none;" parent="1" vertex="1">
          <mxGeometry x="623" y="891.25" width="60" height="30" as="geometry" />
        </mxCell>
        <mxCell id="IzOtXu-ou1Wxr031-CrI-80" value="1*10*10" style="text;html=1;align=center;verticalAlign=middle;resizable=0;points=[];autosize=1;strokeColor=none;fillColor=none;" parent="1" vertex="1">
          <mxGeometry x="527.5" y="960" width="70" height="30" as="geometry" />
        </mxCell>
        <mxCell id="IzOtXu-ou1Wxr031-CrI-81" value="1*10*10" style="text;html=1;align=center;verticalAlign=middle;resizable=0;points=[];autosize=1;strokeColor=none;fillColor=none;" parent="1" vertex="1">
          <mxGeometry x="678" y="960" width="70" height="30" as="geometry" />
        </mxCell>
        <mxCell id="IzOtXu-ou1Wxr031-CrI-82" value="stride=16" style="text;html=1;align=center;verticalAlign=middle;resizable=0;points=[];autosize=1;strokeColor=none;fillColor=none;" parent="1" vertex="1">
          <mxGeometry x="715" y="1018" width="70" height="30" as="geometry" />
        </mxCell>
        <mxCell id="IzOtXu-ou1Wxr031-CrI-85" value="体素化" style="rounded=1;whiteSpace=wrap;html=1;" parent="1" vertex="1">
          <mxGeometry x="2785.5" y="-66" width="120" height="60" as="geometry" />
        </mxCell>
        <mxCell id="IzOtXu-ou1Wxr031-CrI-86" value="&lt;div style=&quot;background-color: rgb(255, 255, 255); font-family: Consolas, &amp;quot;Courier New&amp;quot;, monospace; font-size: 20px; line-height: 27px; white-space: pre;&quot;&gt;&lt;span style=&quot;color: #0000ff;font-weight: bold;&quot;&gt;VoxelResBackBone8x&lt;br&gt;3d卷积&lt;/span&gt;&lt;/div&gt;" style="rounded=1;whiteSpace=wrap;html=1;" parent="1" vertex="1">
          <mxGeometry x="2707.5" y="450" width="256" height="60" as="geometry" />
        </mxCell>
        <mxCell id="IzOtXu-ou1Wxr031-CrI-88" value="&lt;div style=&quot;background-color: rgb(255, 255, 255); font-family: Consolas, &amp;quot;Courier New&amp;quot;, monospace; font-size: 20px; line-height: 27px; white-space: pre;&quot;&gt;&lt;div style=&quot;line-height: 27px;&quot;&gt;&lt;span style=&quot;color: #0000ff;font-weight: bold;&quot;&gt;BaseBEVBackbone&lt;br/&gt;2d卷积&lt;/span&gt;&lt;/div&gt;&lt;/div&gt;" style="rounded=1;whiteSpace=wrap;html=1;verticalAlign=top;" parent="1" vertex="1">
          <mxGeometry x="2566.5" y="600" width="256" height="150" as="geometry" />
        </mxCell>
        <mxCell id="IzOtXu-ou1Wxr031-CrI-89" value="&lt;div style=&quot;background-color: rgb(255, 255, 255); font-family: Consolas, &amp;quot;Courier New&amp;quot;, monospace; font-size: 20px; line-height: 27px; white-space: pre;&quot;&gt;&lt;div style=&quot;line-height: 27px;&quot;&gt;&lt;div style=&quot;line-height: 27px;&quot;&gt;&lt;span style=&quot;color: #0000ff;font-weight: bold;&quot;&gt;CenterHead&lt;br/&gt;带loss和卷积的检测头&lt;/span&gt;&lt;/div&gt;&lt;/div&gt;&lt;/div&gt;" style="rounded=1;whiteSpace=wrap;html=1;verticalAlign=top;fillColor=none;" parent="1" vertex="1">
          <mxGeometry x="2550.25" y="832.5" width="590.5" height="302.5" as="geometry" />
        </mxCell>
        <mxCell id="IzOtXu-ou1Wxr031-CrI-90" value="" style="shape=cube;whiteSpace=wrap;html=1;boundedLbl=1;backgroundOutline=1;darkOpacity=0.05;darkOpacity2=0.1;size=30;" parent="1" vertex="1">
          <mxGeometry x="2795.5" y="34" width="110" height="170" as="geometry" />
        </mxCell>
        <mxCell id="IzOtXu-ou1Wxr031-CrI-91" value="80" style="text;html=1;align=center;verticalAlign=middle;resizable=0;points=[];autosize=1;strokeColor=none;fillColor=none;" parent="1" vertex="1">
          <mxGeometry x="2815.5" y="14" width="40" height="30" as="geometry" />
        </mxCell>
        <mxCell id="IzOtXu-ou1Wxr031-CrI-92" value="80" style="text;html=1;align=center;verticalAlign=middle;resizable=0;points=[];autosize=1;strokeColor=none;fillColor=none;" parent="1" vertex="1">
          <mxGeometry x="2875.5" y="29" width="40" height="30" as="geometry" />
        </mxCell>
        <mxCell id="IzOtXu-ou1Wxr031-CrI-93" value="200" style="text;html=1;align=center;verticalAlign=middle;resizable=0;points=[];autosize=1;strokeColor=none;fillColor=none;" parent="1" vertex="1">
          <mxGeometry x="2895.5" y="114" width="40" height="30" as="geometry" />
        </mxCell>
        <mxCell id="IzOtXu-ou1Wxr031-CrI-108" value="" style="shape=cube;whiteSpace=wrap;html=1;boundedLbl=1;backgroundOutline=1;darkOpacity=0.05;darkOpacity2=0.1;size=10;" parent="1" vertex="1">
          <mxGeometry x="2643.5" y="540" width="395" height="30" as="geometry" />
        </mxCell>
        <mxCell id="IzOtXu-ou1Wxr031-CrI-109" value="1536" style="text;html=1;align=center;verticalAlign=middle;resizable=0;points=[];autosize=1;strokeColor=none;fillColor=none;" parent="1" vertex="1">
          <mxGeometry x="2829.75" y="560" width="50" height="30" as="geometry" />
        </mxCell>
        <mxCell id="IzOtXu-ou1Wxr031-CrI-112" value="10" style="text;html=1;align=center;verticalAlign=middle;resizable=0;points=[];autosize=1;strokeColor=none;fillColor=none;" parent="1" vertex="1">
          <mxGeometry x="2983.5" y="539" width="40" height="30" as="geometry" />
        </mxCell>
        <mxCell id="IzOtXu-ou1Wxr031-CrI-113" value="10" style="text;html=1;align=center;verticalAlign=middle;resizable=0;points=[];autosize=1;strokeColor=none;fillColor=none;" parent="1" vertex="1">
          <mxGeometry x="2978.5" y="509" width="40" height="30" as="geometry" />
        </mxCell>
        <mxCell id="IzOtXu-ou1Wxr031-CrI-114" value="" style="shape=cube;whiteSpace=wrap;html=1;boundedLbl=1;backgroundOutline=1;darkOpacity=0.05;darkOpacity2=0.1;size=10;" parent="1" vertex="1">
          <mxGeometry x="2662.5" y="680" width="55" height="30" as="geometry" />
        </mxCell>
        <mxCell id="IzOtXu-ou1Wxr031-CrI-115" value="10" style="text;html=1;align=center;verticalAlign=middle;resizable=0;points=[];autosize=1;strokeColor=none;fillColor=none;" parent="1" vertex="1">
          <mxGeometry x="2705.5" y="690" width="40" height="30" as="geometry" />
        </mxCell>
        <mxCell id="IzOtXu-ou1Wxr031-CrI-116" value="10" style="text;html=1;align=center;verticalAlign=middle;resizable=0;points=[];autosize=1;strokeColor=none;fillColor=none;" parent="1" vertex="1">
          <mxGeometry x="2700.5" y="660" width="40" height="30" as="geometry" />
        </mxCell>
        <mxCell id="IzOtXu-ou1Wxr031-CrI-117" value="128" style="text;html=1;align=center;verticalAlign=middle;resizable=0;points=[];autosize=1;strokeColor=none;fillColor=none;" parent="1" vertex="1">
          <mxGeometry x="2675" y="710" width="40" height="30" as="geometry" />
        </mxCell>
        <mxCell id="IzOtXu-ou1Wxr031-CrI-119" value="" style="shape=cube;whiteSpace=wrap;html=1;boundedLbl=1;backgroundOutline=1;darkOpacity=0.05;darkOpacity2=0.1;size=10;fillColor=#dae8fc;strokeColor=#6c8ebf;" parent="1" vertex="1">
          <mxGeometry x="2682" y="772.62" width="87" height="30" as="geometry" />
        </mxCell>
        <mxCell id="IzOtXu-ou1Wxr031-CrI-120" value="10" style="text;html=1;align=center;verticalAlign=middle;resizable=0;points=[];autosize=1;strokeColor=none;fillColor=none;" parent="1" vertex="1">
          <mxGeometry x="2735.5" y="782.62" width="40" height="30" as="geometry" />
        </mxCell>
        <mxCell id="IzOtXu-ou1Wxr031-CrI-121" value="10" style="text;html=1;align=center;verticalAlign=middle;resizable=0;points=[];autosize=1;strokeColor=none;fillColor=none;" parent="1" vertex="1">
          <mxGeometry x="2730.5" y="752.62" width="40" height="30" as="geometry" />
        </mxCell>
        <mxCell id="IzOtXu-ou1Wxr031-CrI-122" value="256" style="text;html=1;align=center;verticalAlign=middle;resizable=0;points=[];autosize=1;strokeColor=none;fillColor=none;" parent="1" vertex="1">
          <mxGeometry x="2705" y="802.62" width="40" height="30" as="geometry" />
        </mxCell>
        <mxCell id="IzOtXu-ou1Wxr031-CrI-123" value="" style="shape=cube;whiteSpace=wrap;html=1;boundedLbl=1;backgroundOutline=1;darkOpacity=0.05;darkOpacity2=0.1;size=10;fillColor=#e1d5e7;strokeColor=#9673a6;" parent="1" vertex="1">
          <mxGeometry x="2605.5" y="772.62" width="87" height="30" as="geometry" />
        </mxCell>
        <mxCell id="IzOtXu-ou1Wxr031-CrI-124" value="256" style="text;html=1;align=center;verticalAlign=middle;resizable=0;points=[];autosize=1;strokeColor=none;fillColor=none;" parent="1" vertex="1">
          <mxGeometry x="2635" y="802.62" width="40" height="30" as="geometry" />
        </mxCell>
        <mxCell id="IzOtXu-ou1Wxr031-CrI-125" value="" style="shape=cube;whiteSpace=wrap;html=1;boundedLbl=1;backgroundOutline=1;darkOpacity=0.05;darkOpacity2=0.1;size=23;fillColor=#f8cecc;strokeColor=#b85450;" parent="1" vertex="1">
          <mxGeometry x="2676" y="1019.9999999999999" width="132.5" height="30" as="geometry" />
        </mxCell>
        <mxCell id="IzOtXu-ou1Wxr031-CrI-131" value="&lt;div style=&quot;background-color: rgb(255, 255, 255); font-family: Consolas, &amp;quot;Courier New&amp;quot;, monospace; font-size: 20px; line-height: 27px; white-space: pre;&quot;&gt;&lt;div style=&quot;line-height: 27px;&quot;&gt;&lt;span style=&quot;color: #0000ff;font-weight: bold;&quot;&gt;BaseBEVBackbone&lt;br/&gt;2d卷积&lt;/span&gt;&lt;/div&gt;&lt;/div&gt;" style="rounded=1;whiteSpace=wrap;html=1;verticalAlign=top;" parent="1" vertex="1">
          <mxGeometry x="2870" y="602.5" width="256" height="147.5" as="geometry" />
        </mxCell>
        <mxCell id="IzOtXu-ou1Wxr031-CrI-132" value="" style="shape=cube;whiteSpace=wrap;html=1;boundedLbl=1;backgroundOutline=1;darkOpacity=0.05;darkOpacity2=0.1;size=10;direction=south;" parent="1" vertex="1">
          <mxGeometry x="2978.5" y="670" width="30" height="55" as="geometry" />
        </mxCell>
        <mxCell id="IzOtXu-ou1Wxr031-CrI-133" value="12" style="text;html=1;align=center;verticalAlign=middle;resizable=0;points=[];autosize=1;strokeColor=none;fillColor=none;" parent="1" vertex="1">
          <mxGeometry x="2950" y="682.5" width="40" height="30" as="geometry" />
        </mxCell>
        <mxCell id="IzOtXu-ou1Wxr031-CrI-134" value="10" style="text;html=1;align=center;verticalAlign=middle;resizable=0;points=[];autosize=1;strokeColor=none;fillColor=none;" parent="1" vertex="1">
          <mxGeometry x="3004" y="662.5" width="40" height="30" as="geometry" />
        </mxCell>
        <mxCell id="IzOtXu-ou1Wxr031-CrI-135" value="128" style="text;html=1;align=center;verticalAlign=middle;resizable=0;points=[];autosize=1;strokeColor=none;fillColor=none;" parent="1" vertex="1">
          <mxGeometry x="2978" y="725" width="40" height="30" as="geometry" />
        </mxCell>
        <mxCell id="IzOtXu-ou1Wxr031-CrI-136" value="" style="shape=cube;whiteSpace=wrap;html=1;boundedLbl=1;backgroundOutline=1;darkOpacity=0.05;darkOpacity2=0.1;size=10;fillColor=#dae8fc;strokeColor=#6c8ebf;" parent="1" vertex="1">
          <mxGeometry x="2985" y="772.62" width="87" height="30" as="geometry" />
        </mxCell>
        <mxCell id="IzOtXu-ou1Wxr031-CrI-137" value="12" style="text;html=1;align=center;verticalAlign=middle;resizable=0;points=[];autosize=1;strokeColor=none;fillColor=none;" parent="1" vertex="1">
          <mxGeometry x="3038.5" y="782.62" width="40" height="30" as="geometry" />
        </mxCell>
        <mxCell id="IzOtXu-ou1Wxr031-CrI-138" value="10" style="text;html=1;align=center;verticalAlign=middle;resizable=0;points=[];autosize=1;strokeColor=none;fillColor=none;" parent="1" vertex="1">
          <mxGeometry x="3033.5" y="752.62" width="40" height="30" as="geometry" />
        </mxCell>
        <mxCell id="IzOtXu-ou1Wxr031-CrI-139" value="256" style="text;html=1;align=center;verticalAlign=middle;resizable=0;points=[];autosize=1;strokeColor=none;fillColor=none;" parent="1" vertex="1">
          <mxGeometry x="3008" y="802.62" width="40" height="30" as="geometry" />
        </mxCell>
        <mxCell id="IzOtXu-ou1Wxr031-CrI-140" value="" style="shape=cube;whiteSpace=wrap;html=1;boundedLbl=1;backgroundOutline=1;darkOpacity=0.05;darkOpacity2=0.1;size=10;fillColor=#e1d5e7;strokeColor=#9673a6;" parent="1" vertex="1">
          <mxGeometry x="2908.5" y="772.62" width="87" height="30" as="geometry" />
        </mxCell>
        <mxCell id="IzOtXu-ou1Wxr031-CrI-141" value="256" style="text;html=1;align=center;verticalAlign=middle;resizable=0;points=[];autosize=1;strokeColor=none;fillColor=none;" parent="1" vertex="1">
          <mxGeometry x="2938" y="802.62" width="40" height="30" as="geometry" />
        </mxCell>
        <mxCell id="IzOtXu-ou1Wxr031-CrI-143" value="heatmap" style="text;html=1;align=center;verticalAlign=middle;resizable=0;points=[];autosize=1;strokeColor=none;fillColor=none;fontColor=#000099;" parent="1" vertex="1">
          <mxGeometry x="2978" y="939.9999999999999" width="70" height="30" as="geometry" />
        </mxCell>
        <mxCell id="IzOtXu-ou1Wxr031-CrI-145" value="" style="shape=cube;whiteSpace=wrap;html=1;boundedLbl=1;backgroundOutline=1;darkOpacity=0.05;darkOpacity2=0.1;size=10;fillColor=#d5e8d4;strokeColor=#82b366;" parent="1" vertex="1">
          <mxGeometry x="2706.5" y="929.9999999999999" width="59.5" height="30" as="geometry" />
        </mxCell>
        <mxCell id="IzOtXu-ou1Wxr031-CrI-147" value="" style="endArrow=none;dashed=1;html=1;rounded=0;" parent="1" edge="1">
          <mxGeometry width="50" height="50" relative="1" as="geometry">
            <mxPoint x="2742.5" y="1030" as="sourcePoint" />
            <mxPoint x="2742.5" y="949.9999999999999" as="targetPoint" />
          </mxGeometry>
        </mxCell>
        <mxCell id="IzOtXu-ou1Wxr031-CrI-148" value="" style="endArrow=classic;html=1;rounded=0;" parent="1" source="IzOtXu-ou1Wxr031-CrI-142" edge="1">
          <mxGeometry width="50" height="50" relative="1" as="geometry">
            <mxPoint x="2924.379310344827" y="890" as="sourcePoint" />
            <mxPoint x="2924.379310344827" y="1040" as="targetPoint" />
          </mxGeometry>
        </mxCell>
        <mxCell id="IzOtXu-ou1Wxr031-CrI-149" value="" style="endArrow=classic;html=1;rounded=0;exitX=0;exitY=0;exitDx=129.5;exitDy=23;exitPerimeter=0;" parent="1" source="IzOtXu-ou1Wxr031-CrI-142" edge="1">
          <mxGeometry width="50" height="50" relative="1" as="geometry">
            <mxPoint x="2845" y="1060" as="sourcePoint" />
            <mxPoint x="2872.5" y="989.9999999999999" as="targetPoint" />
          </mxGeometry>
        </mxCell>
        <mxCell id="IzOtXu-ou1Wxr031-CrI-150" value="" style="endArrow=classic;html=1;rounded=0;exitX=1;exitY=1;exitDx=0;exitDy=0;exitPerimeter=0;entryX=0.469;entryY=1.021;entryDx=0;entryDy=0;entryPerimeter=0;" parent="1" edge="1">
          <mxGeometry width="50" height="50" relative="1" as="geometry">
            <mxPoint x="2808.5" y="1044" as="sourcePoint" />
            <mxPoint x="2738.1425000000004" y="1044.6299999999997" as="targetPoint" />
          </mxGeometry>
        </mxCell>
        <mxCell id="IzOtXu-ou1Wxr031-CrI-151" value="" style="endArrow=classic;html=1;rounded=0;" parent="1" target="IzOtXu-ou1Wxr031-CrI-125" edge="1">
          <mxGeometry width="50" height="50" relative="1" as="geometry">
            <mxPoint x="2807" y="1050" as="sourcePoint" />
            <mxPoint x="2857" y="999.9999999999999" as="targetPoint" />
            <Array as="points" />
          </mxGeometry>
        </mxCell>
        <mxCell id="IzOtXu-ou1Wxr031-CrI-152" value="" style="endArrow=classic;html=1;rounded=0;entryX=0;entryY=0;entryDx=109.5;entryDy=0;entryPerimeter=0;exitX=0;exitY=0;exitDx=132.5;exitDy=23;exitPerimeter=0;" parent="1" source="IzOtXu-ou1Wxr031-CrI-125" target="IzOtXu-ou1Wxr031-CrI-125" edge="1">
          <mxGeometry width="50" height="50" relative="1" as="geometry">
            <mxPoint x="2808.5" y="1050" as="sourcePoint" />
            <mxPoint x="2858.5" y="999.9999999999999" as="targetPoint" />
          </mxGeometry>
        </mxCell>
        <mxCell id="IzOtXu-ou1Wxr031-CrI-153" value="x" style="text;html=1;align=center;verticalAlign=middle;resizable=0;points=[];autosize=1;strokeColor=none;fillColor=none;" parent="1" vertex="1">
          <mxGeometry x="2785.5" y="1000" width="30" height="30" as="geometry" />
        </mxCell>
        <mxCell id="IzOtXu-ou1Wxr031-CrI-154" value="y" style="text;html=1;align=center;verticalAlign=middle;resizable=0;points=[];autosize=1;strokeColor=none;fillColor=none;" parent="1" vertex="1">
          <mxGeometry x="2745.5" y="1048" width="30" height="30" as="geometry" />
        </mxCell>
        <mxCell id="IzOtXu-ou1Wxr031-CrI-142" value="" style="shape=cube;whiteSpace=wrap;html=1;boundedLbl=1;backgroundOutline=1;darkOpacity=0.05;darkOpacity2=0.1;size=23;direction=south;flipH=1;fillColor=#dae8fc;strokeColor=#6c8ebf;" parent="1" vertex="1">
          <mxGeometry x="2895" y="910" width="30" height="129.5" as="geometry" />
        </mxCell>
        <mxCell id="IzOtXu-ou1Wxr031-CrI-155" value="" style="endArrow=classic;html=1;rounded=0;entryX=0;entryY=0;entryDx=23;entryDy=30;entryPerimeter=0;exitX=1;exitY=1;exitDx=0;exitDy=0;exitPerimeter=0;" parent="1" edge="1">
          <mxGeometry width="50" height="50" relative="1" as="geometry">
            <mxPoint x="2919.0000000000005" y="1039.5" as="sourcePoint" />
            <mxPoint x="2919.0000000000005" y="933.0000000000003" as="targetPoint" />
          </mxGeometry>
        </mxCell>
        <mxCell id="IzOtXu-ou1Wxr031-CrI-156" value="z" style="text;html=1;align=center;verticalAlign=middle;resizable=0;points=[];autosize=1;strokeColor=none;fillColor=none;" parent="1" vertex="1">
          <mxGeometry x="2930" y="977.9999999999999" width="30" height="30" as="geometry" />
        </mxCell>
        <mxCell id="IzOtXu-ou1Wxr031-CrI-146" value="" style="endArrow=none;dashed=1;html=1;rounded=0;entryX=0;entryY=0;entryDx=59.5;entryDy=10;entryPerimeter=0;" parent="1" edge="1">
          <mxGeometry width="50" height="50" relative="1" as="geometry">
            <mxPoint x="2972.5" y="949.9999999999999" as="sourcePoint" />
            <mxPoint x="2741" y="949.9999999999994" as="targetPoint" />
          </mxGeometry>
        </mxCell>
        <mxCell id="IzOtXu-ou1Wxr031-CrI-158" value="" style="endArrow=none;dashed=1;html=1;rounded=0;entryX=0;entryY=0;entryDx=118;entryDy=11.5;entryPerimeter=0;" parent="1" target="IzOtXu-ou1Wxr031-CrI-142" edge="1">
          <mxGeometry width="50" height="50" relative="1" as="geometry">
            <mxPoint x="2906.5" y="949.9999999999999" as="sourcePoint" />
            <mxPoint x="2972.5" y="900" as="targetPoint" />
          </mxGeometry>
        </mxCell>
        <mxCell id="IzOtXu-ou1Wxr031-CrI-159" value="" style="endArrow=none;dashed=1;html=1;rounded=0;exitX=0;exitY=0;exitDx=118;exitDy=11.5;exitPerimeter=0;" parent="1" source="IzOtXu-ou1Wxr031-CrI-142" edge="1">
          <mxGeometry width="50" height="50" relative="1" as="geometry">
            <mxPoint x="2922.5" y="949.9999999999999" as="sourcePoint" />
            <mxPoint x="2742.5" y="1030" as="targetPoint" />
          </mxGeometry>
        </mxCell>
        <mxCell id="IzOtXu-ou1Wxr031-CrI-161" value="heatmap" style="text;html=1;align=center;verticalAlign=middle;resizable=0;points=[];autosize=1;strokeColor=none;fillColor=none;fontColor=#FF0080;" parent="1" vertex="1">
          <mxGeometry x="2643.5" y="1060" width="70" height="30" as="geometry" />
        </mxCell>
        <mxCell id="IzOtXu-ou1Wxr031-CrI-164" value="x,y,dx,dy,angle" style="text;html=1;align=center;verticalAlign=middle;resizable=0;points=[];autosize=1;strokeColor=none;fillColor=none;fontStyle=1;fontColor=#CC0066;" parent="1" vertex="1">
          <mxGeometry x="2691" y="1100" width="100" height="30" as="geometry" />
        </mxCell>
        <mxCell id="IzOtXu-ou1Wxr031-CrI-165" value="z,dz" style="text;html=1;align=center;verticalAlign=middle;resizable=0;points=[];autosize=1;strokeColor=none;fillColor=none;fontColor=#0000FF;fontStyle=1" parent="1" vertex="1">
          <mxGeometry x="2894.5" y="1100" width="50" height="30" as="geometry" />
        </mxCell>
        <mxCell id="IzOtXu-ou1Wxr031-CrI-166" value="" style="endArrow=classic;html=1;rounded=0;entryX=0;entryY=0;entryDx=0;entryDy=7;exitX=0;exitY=0;exitDx=87;exitDy=20;exitPerimeter=0;entryPerimeter=0;" parent="1" source="IzOtXu-ou1Wxr031-CrI-123" target="IzOtXu-ou1Wxr031-CrI-125" edge="1">
          <mxGeometry width="50" height="50" relative="1" as="geometry">
            <mxPoint x="2820" y="923.62" as="sourcePoint" />
            <mxPoint x="2870" y="873.62" as="targetPoint" />
          </mxGeometry>
        </mxCell>
        <mxCell id="IzOtXu-ou1Wxr031-CrI-167" value="" style="endArrow=classic;html=1;rounded=0;exitX=0;exitY=0;exitDx=10;exitDy=30;exitPerimeter=0;entryX=0;entryY=0;entryDx=11.5;entryDy=18.5;entryPerimeter=0;" parent="1" source="IzOtXu-ou1Wxr031-CrI-136" target="IzOtXu-ou1Wxr031-CrI-142" edge="1">
          <mxGeometry width="50" height="50" relative="1" as="geometry">
            <mxPoint x="2820" y="923.62" as="sourcePoint" />
            <mxPoint x="2991" y="863.62" as="targetPoint" />
          </mxGeometry>
        </mxCell>
        <mxCell id="IzOtXu-ou1Wxr031-CrI-168" value="" style="endArrow=classic;html=1;rounded=0;entryX=0.5;entryY=0;entryDx=0;entryDy=0;exitX=0.308;exitY=0.967;exitDx=0;exitDy=0;exitPerimeter=0;" parent="1" source="IzOtXu-ou1Wxr031-CrI-108" target="IzOtXu-ou1Wxr031-CrI-88" edge="1">
          <mxGeometry width="50" height="50" relative="1" as="geometry">
            <mxPoint x="2820" y="650" as="sourcePoint" />
            <mxPoint x="2870" y="600" as="targetPoint" />
          </mxGeometry>
        </mxCell>
        <mxCell id="IzOtXu-ou1Wxr031-CrI-169" value="" style="endArrow=classic;html=1;rounded=0;" parent="1" source="IzOtXu-ou1Wxr031-CrI-108" edge="1">
          <mxGeometry width="50" height="50" relative="1" as="geometry">
            <mxPoint x="2820" y="650" as="sourcePoint" />
            <mxPoint x="3010" y="600" as="targetPoint" />
          </mxGeometry>
        </mxCell>
        <mxCell id="IzOtXu-ou1Wxr031-CrI-171" value="80x80x192" style="text;html=1;align=center;verticalAlign=middle;resizable=0;points=[];autosize=1;strokeColor=none;fillColor=none;" parent="1" vertex="1">
          <mxGeometry x="2790" y="400" width="80" height="30" as="geometry" />
        </mxCell>
      </root>
    </mxGraphModel>
  </diagram>
</mxfile>
